<svg width="64" height="32" viewBox="0 0 64 32" fill="none" xmlns="http://www.w3.org/2000/svg">
<g clip-path="url(#clip0_5_1977)">
<path fill-rule="evenodd" clip-rule="evenodd" d="M43.75 16C43.75 22.4893 38.4893 27.75 32 27.75C30.3039 27.75 28.6918 27.3906 27.2355 26.7439C26.5188 26.4256 25.6476 26.6557 24.8893 26.8556C23.3408 27.2636 21.9219 25.8616 22.3113 24.3083C22.4643 23.6984 22.5345 22.9913 22.188 22.4666C20.9631 20.6118 20.25 18.3892 20.25 16C20.25 9.51065 25.5107 4.25 32 4.25C38.4893 4.25 43.75 9.51065 43.75 16ZM26.6464 24.0796C26.944 24.0172 27.2527 24.0741 27.5196 24.2199C28.8503 24.9467 30.3769 25.3599 32 25.3599C37.1693 25.3599 41.3599 21.1693 41.3599 16C41.3599 10.8307 37.1693 6.64013 32 6.64013C26.8307 6.64013 22.6401 10.8307 22.6401 16C22.6401 18.3382 23.4975 20.4762 24.915 22.1166C25.1325 22.3683 25.2153 22.7134 25.1117 23.0294C24.8969 23.6842 25.4715 24.3259 26.146 24.1845L26.6464 24.0796Z" fill="#54656F"/>
<path fill-rule="evenodd" clip-rule="evenodd" d="M30.0872 10.5547C30.0872 9.91433 29.4732 9.45088 28.8982 9.73279C26.6084 10.8554 25.0319 13.2094 25.0319 15.9317C25.0319 18.6539 26.6084 21.0079 28.8982 22.1305C29.4732 22.4124 30.0872 21.949 30.0872 21.3086C30.0872 20.9097 29.8381 20.5593 29.489 20.3665C27.9273 19.5045 26.8695 17.8416 26.8695 15.9317C26.8695 14.0217 27.9273 12.3588 29.489 11.4968C29.8381 11.304 30.0872 10.9536 30.0872 10.5547ZM33.6396 21.3774C33.6396 20.9702 33.9 20.6147 34.2614 20.427C35.8848 19.5839 36.9938 17.8873 36.9938 15.9317C36.9938 13.976 35.8848 12.2794 34.2614 11.4363C33.9 11.2486 33.6396 10.8931 33.6396 10.4859C33.6396 9.85666 34.2362 9.39566 34.808 9.65827C37.1825 10.7488 38.8313 13.1477 38.8313 15.9317C38.8313 18.7157 37.1825 21.1145 34.808 22.205C34.2362 22.4677 33.6396 22.0067 33.6396 21.3774Z" fill="#54656F"/>
<circle cx="31.9317" cy="15.9317" r="1.84448" fill="#54656F"/>
</g>
<defs>
<clipPath id="clip0_5_1977">
<rect width="64" height="32" rx="16" fill="white"/>
</clipPath>
</defs>
</svg>
