<svg width="27" height="27" viewBox="0 0 27 27" fill="none" xmlns="http://www.w3.org/2000/svg">
<path d="M24.789 3.5747C25.1655 3.19812 25.1655 2.58757 24.789 2.21099C24.4124 1.83442 23.8019 1.83442 23.4253 2.21099L10.8896 14.7467L10.6071 16.3928L12.2533 16.1104L24.789 3.5747Z" fill="#54656F"/>
<path d="M6.26785 2.89285C4.40389 2.89285 2.89285 4.40389 2.89285 6.26785V20.7321C2.89285 22.5961 4.40389 24.1071 6.26785 24.1071H20.7321C22.5961 24.1071 24.1071 22.5961 24.1071 20.7321V11.0893C24.1071 10.5567 23.6754 10.125 23.1429 10.125C22.6103 10.125 22.1786 10.5567 22.1786 11.0893V20.7321C22.1786 21.531 21.531 22.1786 20.7321 22.1786H6.26785C5.46901 22.1786 4.82142 21.531 4.82142 20.7321V6.26785C4.82142 5.46901 5.46901 4.82142 6.26785 4.82142H15.9107C16.4433 4.82142 16.875 4.38969 16.875 3.85714C16.875 3.32458 16.4433 2.89285 15.9107 2.89285H6.26785Z" fill="#54656F"/>
</svg>
