<svg width="64" height="32" viewBox="0 0 64 32" fill="none" xmlns="http://www.w3.org/2000/svg">
<g clip-path="url(#clip0_3_1563)">
<g clip-path="url(#clip1_3_1563)">
<path d="M32.0098 16.1252C33.8712 16.1252 35.3915 14.6326 35.3915 12.7933C35.3915 10.9541 33.8809 9.46148 32.0098 9.46148C30.1483 9.46148 28.6377 10.9444 28.6377 12.7933C28.6377 14.6422 30.1483 16.1252 32.0098 16.1252ZM35.0017 16.6452H34.7288C34.6314 16.6452 34.4949 16.6837 34.4072 16.7222C34.4072 16.7222 34.1928 16.8474 33.9979 16.9244C33.4131 17.1748 32.7407 17.3193 32.0292 17.3193C31.3178 17.3193 30.6551 17.1748 30.0606 16.9341C29.8657 16.8474 29.6415 16.7222 29.6415 16.7222C29.5636 16.6741 29.4174 16.6452 29.3199 16.6452H29.0568C27.975 16.78 26.8445 17.7237 26.5229 18.7541C26.5229 18.7541 26.1818 19.4474 26.1331 20.7956C26.1331 20.9689 26.2695 21.2 26.4547 21.2963C26.4547 21.2963 28.2869 22.4615 32.0195 22.4615C35.7521 22.4615 37.5843 21.2963 37.5843 21.2963C37.7695 21.2 37.9157 20.9496 37.9059 20.7956C37.8572 19.4474 37.5259 18.783 37.5259 18.783C37.2237 17.7526 36.0737 16.7993 35.0017 16.6452Z" fill="#54656F"/>
<path d="M35.0797 15.8459C35.4402 15.5667 35.8691 15.3644 36.2784 15.3067H36.4635C36.561 15.3067 36.7072 15.3452 36.7852 15.3837C36.7852 15.3837 36.9411 15.4704 37.097 15.5378C37.5746 15.74 38.1203 15.8556 38.6953 15.8556C39.2703 15.8556 39.8258 15.74 40.3034 15.5378C40.4593 15.4704 40.6152 15.3837 40.6152 15.3837C40.6932 15.3356 40.8394 15.3067 40.9369 15.3067H41.1318C42.0089 15.4319 42.9445 16.2022 43.1881 17.0496C43.1881 17.0496 43.461 17.5889 43.5 18.6867C43.5 18.783 43.3538 19.0237 43.1784 19.12C43.1784 19.12 41.7458 20.0348 38.7051 20.0348C38.6563 20.0348 38.6076 20.0348 38.5589 20.0348C38.5686 19.9096 38.5784 19.7941 38.5784 19.6689C38.5686 17.6756 37.0385 16.0481 35.0797 15.8459ZM38.6953 14.883C40.2157 14.883 41.4436 13.6696 41.4436 12.1674C41.4436 10.6652 40.2157 9.45185 38.6953 9.45185C37.175 9.45185 35.947 10.6652 35.947 12.1674C35.947 13.6696 37.175 14.883 38.6953 14.883Z" fill="#54656F"/>
<path d="M28.9203 15.8459C28.5597 15.5667 28.1309 15.3644 27.7216 15.3067H27.5364C27.439 15.3067 27.2928 15.3452 27.2148 15.3837C27.2148 15.3837 27.0589 15.4704 26.903 15.5378C26.4254 15.74 25.8797 15.8556 25.3047 15.8556C24.7297 15.8556 24.1742 15.74 23.6966 15.5378C23.5407 15.4704 23.3847 15.3837 23.3847 15.3837C23.3068 15.3356 23.1606 15.3067 23.0631 15.3067H22.8682C21.9911 15.4319 21.0555 16.2022 20.8119 17.0496C20.8119 17.0496 20.539 17.5889 20.5 18.6867C20.5 18.783 20.6462 19.0237 20.8216 19.12C20.8216 19.12 22.2542 20.0348 25.2949 20.0348C25.3436 20.0348 25.3924 20.0348 25.4411 20.0348C25.4314 19.9096 25.4216 19.7941 25.4216 19.6689C25.4314 17.6756 26.9614 16.0481 28.9203 15.8459ZM25.3047 14.883C23.7843 14.883 22.5564 13.6696 22.5564 12.1674C22.5564 10.6652 23.7843 9.45185 25.3047 9.45185C26.825 9.45185 28.053 10.6652 28.053 12.1674C28.053 13.6696 26.825 14.883 25.3047 14.883Z" fill="#54656F"/>
</g>
</g>
<defs>
<clipPath id="clip0_3_1563">
<rect width="64" height="32" rx="16" fill="white"/>
</clipPath>
<clipPath id="clip1_3_1563">
<rect width="23" height="13" fill="white" transform="translate(20.5 9.5)"/>
</clipPath>
</defs>
</svg>
