<svg width="64" height="34" viewBox="0 0 64 34" fill="none" xmlns="http://www.w3.org/2000/svg">
<rect y="2" width="64" height="32" rx="16" fill="#1D192B" fill-opacity="0.12"/>
<path d="M24.5214 20.3333C24.5214 20.7459 24.6965 21.1416 25.0081 21.4333C25.3198 21.725 25.7425 21.8889 26.1833 21.8889H36.1548L39.4786 25V12.5555C39.4786 12.143 39.3035 11.7473 38.9919 11.4556C38.6802 11.1639 38.2575 11 37.8167 11H26.1833C25.7425 11 25.3198 11.1639 25.0081 11.4556C24.6965 11.7473 24.5214 12.143 24.5214 12.5555V20.3333Z" fill="#54656F" stroke="#54656F" stroke-width="1.64706" stroke-linecap="round" stroke-linejoin="round"/>
<path d="M27.0142 14.4999H36.9857" stroke="#CBCBCB" stroke-width="1.64706" stroke-linecap="round"/>
<path d="M27.0142 18.3888H36.9857" stroke="#CBCBCB" stroke-width="1.64706" stroke-linecap="round"/>
<rect x="35" width="16" height="16" rx="8" fill="#B3261E"/>
<path d="M44.375 4.13135H44.5361V5.18945H44.4448C43.9829 5.18945 43.5837 5.26107 43.2471 5.4043C42.9141 5.54753 42.6401 5.74447 42.4253 5.99512C42.2104 6.24577 42.0493 6.53939 41.9419 6.87598C41.8381 7.20898 41.7861 7.56348 41.7861 7.93945V9.16943C41.7861 9.48096 41.8201 9.75667 41.8882 9.99658C41.9562 10.2329 42.0511 10.4316 42.1729 10.5928C42.2982 10.7503 42.4414 10.8703 42.6025 10.9526C42.7637 11.035 42.9373 11.0762 43.1235 11.0762C43.3169 11.0762 43.4924 11.0368 43.6499 10.958C43.8075 10.8757 43.9417 10.7629 44.0527 10.6196C44.1637 10.4764 44.2479 10.3063 44.3052 10.1094C44.3625 9.91243 44.3911 9.69759 44.3911 9.46484C44.3911 9.24284 44.3625 9.03516 44.3052 8.8418C44.2515 8.64486 44.1709 8.47298 44.0635 8.32617C43.9561 8.17578 43.8218 8.05941 43.6606 7.97705C43.5031 7.89111 43.3205 7.84814 43.1128 7.84814C42.855 7.84814 42.6204 7.90902 42.4092 8.03076C42.2015 8.15251 42.0332 8.31185 41.9043 8.50879C41.779 8.70215 41.7109 8.90804 41.7002 9.12646L41.2061 8.96533C41.2347 8.63232 41.3081 8.33333 41.4263 8.06836C41.548 7.80339 41.7074 7.5778 41.9043 7.3916C42.1012 7.2054 42.3286 7.06396 42.5864 6.96729C42.8478 6.86702 43.1343 6.81689 43.4458 6.81689C43.8254 6.81689 44.1548 6.88851 44.4341 7.03174C44.7134 7.17497 44.9443 7.37012 45.127 7.61719C45.3132 7.86068 45.451 8.13997 45.5405 8.45508C45.6336 8.7666 45.6802 9.09245 45.6802 9.43262C45.6802 9.80859 45.6229 10.1595 45.5083 10.4854C45.3937 10.8076 45.2254 11.0905 45.0034 11.334C44.785 11.5775 44.5182 11.7673 44.2031 11.9033C43.8916 12.0394 43.5371 12.1074 43.1396 12.1074C42.7207 12.1074 42.3465 12.0269 42.0171 11.8657C41.6912 11.7046 41.4137 11.4826 41.1846 11.1997C40.959 10.9168 40.7871 10.591 40.6689 10.2222C40.5508 9.85335 40.4917 9.46305 40.4917 9.05127V8.51416C40.4917 7.91976 40.5669 7.35938 40.7173 6.83301C40.8677 6.30306 41.0986 5.83577 41.4102 5.43115C41.7253 5.02653 42.1281 4.70964 42.6187 4.48047C43.1092 4.24772 43.6947 4.13135 44.375 4.13135Z" fill="white"/>
</svg>
