<svg width="64" height="32" viewBox="0 0 64 32" fill="none" xmlns="http://www.w3.org/2000/svg">
<g clip-path="url(#clip0_4_1581)">
<path d="M39.2218 19.2682L36.6818 18.9782C36.0718 18.9082 35.4718 19.1182 35.0418 19.5482L33.2018 21.3882C30.3718 19.9482 28.0518 17.6382 26.6118 14.7982L28.4618 12.9482C28.8918 12.5182 29.1018 11.9182 29.0318 11.3082L28.7418 8.78817C28.6218 7.77817 27.7718 7.01817 26.7518 7.01817H25.0218C23.8918 7.01817 22.9518 7.95817 23.0218 9.08817C23.5518 17.6282 30.3818 24.4482 38.9118 24.9782C40.0418 25.0482 40.9818 24.1082 40.9818 22.9782V21.2482C40.9918 20.2382 40.2318 19.3882 39.2218 19.2682Z" fill="#54656F"/>
</g>
<defs>
<clipPath id="clip0_4_1581">
<rect width="64" height="32" rx="16" fill="white"/>
</clipPath>
</defs>
</svg>
