<svg width="64" height="32" viewBox="0 0 64 32" fill="none" xmlns="http://www.w3.org/2000/svg">
<g clip-path="url(#clip0_4_1573)">
<path d="M34.8815 10.051C35.1571 9.47259 34.9129 8.77094 34.2997 8.58486C32.8538 8.14606 31.302 8.138 29.8381 8.57566C28.0014 9.12478 26.4341 10.3364 25.4401 11.9756C24.4461 13.6148 24.0963 15.5647 24.4584 17.4472C24.8206 19.3297 25.8689 21.0106 27.4002 22.164C28.9314 23.3174 30.8364 23.861 32.7457 23.6894C34.655 23.5179 36.4326 22.6434 37.7338 21.2355C39.0349 19.8277 39.7668 17.9868 39.7876 16.0699C39.8042 14.5421 39.3681 13.0528 38.5472 11.7842C38.1991 11.2462 37.4573 11.2051 36.9774 11.6297C36.4975 12.0543 36.4659 12.7836 36.7787 13.3428C37.237 14.1621 37.4777 15.0928 37.4674 16.0447C37.4528 17.3866 36.9405 18.6752 36.0297 19.6607C35.1189 20.6462 33.8746 21.2583 32.5381 21.3784C31.2016 21.4985 29.8681 21.1179 28.7962 20.3106C27.7243 19.5032 26.9905 18.3266 26.737 17.0088C26.4835 15.6911 26.7284 14.3261 27.4242 13.1787C28.12 12.0313 29.2171 11.1831 30.5028 10.7988C31.4149 10.5261 32.3758 10.5006 33.2898 10.7149C33.9136 10.8612 34.6059 10.6295 34.8815 10.051Z" fill="#54656F"/>
<circle cx="39.1968" cy="7.83753" r="1.96312" fill="#24D366"/>
<path fill-rule="evenodd" clip-rule="evenodd" d="M40.5388 9.74492C40.11 10.1767 40.0602 10.8497 40.3527 11.3833C41.1037 12.7537 41.5308 14.327 41.5308 16C41.5308 19.4027 39.7641 22.3927 37.098 24.1028C36.6034 24.4201 36.3241 25.0035 36.4615 25.5748C36.6464 26.3433 37.4866 26.7582 38.1628 26.3489C41.6616 24.2308 44 20.3885 44 16C44 13.7842 43.4039 11.7077 42.3632 9.92206C41.978 9.26095 41.0779 9.20194 40.5388 9.74492ZM32.0191 28.0882C32.7664 28.0817 33.2641 27.3594 33.0893 26.6327L33.0513 26.4751C32.9272 25.9592 32.442 25.6195 31.9113 25.6195C27.2782 25.6195 23.4101 22.3441 22.4963 17.9824C22.3728 17.3929 21.9063 16.9166 21.3067 16.8595C20.5377 16.7863 19.8802 17.4192 20.0185 18.1792C21.0446 23.8155 25.9789 28.0887 31.9113 28.0887C31.9473 28.0887 31.9832 28.0885 32.0191 28.0882ZM31.9113 6.38047C27.7889 6.38047 24.2722 8.97356 22.9033 12.6176C22.6853 13.1977 22.1263 13.6023 21.5094 13.5436C20.7604 13.4723 20.2375 12.7589 20.4834 12.0478C22.1209 7.31222 26.6189 3.9113 31.9113 3.9113C33.6045 3.9113 35.2164 4.2594 36.6793 4.88793C37.44 5.21476 37.5633 6.19658 36.9799 6.78408C36.5874 7.17936 35.9868 7.26606 35.4694 7.05992C34.3688 6.62152 33.1682 6.38047 31.9113 6.38047Z" fill="#54656F"/>
</g>
<defs>
<clipPath id="clip0_4_1573">
<rect width="64" height="32" rx="16" fill="white"/>
</clipPath>
</defs>
</svg>
